<svg width="184" height="189" viewBox="0 0 184 189" fill="none" xmlns="http://www.w3.org/2000/svg">
<mask id="mask0" mask-type="alpha" maskUnits="userSpaceOnUse" x="30" y="25" width="169" height="170">
<path d="M116.5 44V28H196.5V192H32.5V147H132.5V56L116.5 44Z" fill="white" stroke="white" stroke-width="5"/>
</mask>
<g mask="url(#mask0)">
<circle cx="105" cy="110" r="79" fill="url(#paint0_linear)"/>
</g>
<path d="M68 8.5L3 55L68 109.5L132 55L68 8.5Z" fill="#14233B" stroke="white" stroke-width="5" stroke-linejoin="round"/>
<path d="M114.5 24.5H20.5V70L54.5 98.5L67.5 88L80 98.5L114.5 70V24.5Z" fill="#2D9CDB" stroke="white" stroke-width="5" stroke-linejoin="round"/>
<path d="M2.5 146.439V55.4395L11.9545 63.2475L54.8939 98.7092L67.5 88L79.7807 98.7092L122.652 63.5227L132.5 55.4395V146.439H2.5Z" fill="#14233B"/>
<path d="M2.5 146.439V55.4395L11.9545 63.2475L54.8939 98.7092M2.5 146.439H132.5M2.5 146.439L54.8939 98.7092M132.5 146.439V55.4395L122.652 63.5227L79.7807 98.7092M132.5 146.439L79.7807 98.7092M54.8939 98.7092L67.5 88L79.7807 98.7092" stroke="white" stroke-width="5" stroke-linecap="round" stroke-linejoin="round"/>
<path d="M83.9695 43.0574C83.6098 42.825 83.2041 42.6604 82.7755 42.5728C82.3469 42.4853 81.9038 42.4766 81.4716 42.5472C81.0393 42.6177 80.6264 42.7663 80.2563 42.9842C79.8863 43.2022 79.5663 43.4853 79.3148 43.8175L66.6078 60.5726L58.2761 55.318C57.6079 54.896 56.7854 54.7363 55.9897 54.8741C55.194 55.012 54.4902 55.436 54.0331 56.053C53.576 56.67 53.4031 57.4293 53.5524 58.164C53.7017 58.8986 54.1609 59.5485 54.8292 59.9705L65.9973 67.0135C66.3413 67.2303 66.73 67.3792 67.1392 67.4509C67.5483 67.5227 67.9691 67.5157 68.3752 67.4304C68.8083 67.3605 69.2223 67.2123 69.5933 66.9944C69.9643 66.7765 70.2851 66.4932 70.5372 66.1606L84.7932 47.3573C85.3013 46.6859 85.4999 45.8557 85.3454 45.0491C85.1908 44.2426 84.6957 43.5257 83.969 43.056" fill="white"/>
<defs>
<linearGradient id="paint0_linear" x1="26" y1="110" x2="184" y2="110" gradientUnits="userSpaceOnUse">
<stop stop-color="#FC6080"/>
<stop offset="1" stop-color="#FF9A44"/>
</linearGradient>
</defs>
</svg>
