<svg width="135" height="149" viewBox="0 0 135 149" fill="none" xmlns="http://www.w3.org/2000/svg">
<path d="M68 8.5L3 55L68 110.5L132 55L68 8.5Z" fill="#14233B" stroke="white" stroke-width="5" stroke-linejoin="round"/>
<path d="M114.5 24.5H20.5V70L54.5 98.5L67.5 88L80 98.5L114.5 70V24.5Z" fill="#2D9CDB" stroke="white" stroke-width="5" stroke-linejoin="round"/>
<path d="M2.5 146.439V55.4395L11.9545 63.2475L54.8939 98.7092L67.5 88L79.7807 98.7092L122.652 63.5227L132.5 55.4395V146.439H2.5Z" fill="#14233B"/>
<path d="M2.5 146.439V55.4395L11.9545 63.2475L54.8939 98.7092M2.5 146.439H132.5M2.5 146.439L54.8939 98.7092M132.5 146.439V55.4395L122.652 63.5227L79.7807 98.7092M132.5 146.439L79.7807 98.7092M54.8939 98.7092L67.5 88L79.7807 98.7092" stroke="white" stroke-width="5" stroke-linecap="round" stroke-linejoin="round"/>
<path d="M66.5 69.5C70.213 69.5 73.774 68.025 76.3995 65.3995C79.025 62.774 80.5 59.213 80.5 55.5C80.5 51.787 79.025 48.226 76.3995 45.6005C73.774 42.975 70.213 41.5 66.5 41.5C62.787 41.5 59.226 42.975 56.6005 45.6005C53.975 48.226 52.5 51.787 52.5 55.5C52.5 59.213 53.975 62.774 56.6005 65.3995C59.226 68.025 62.787 69.5 66.5 69.5ZM66.5 73C56.8348 73 49 65.1652 49 55.5C49 45.8348 56.8348 38 66.5 38C76.1652 38 84 45.8348 84 55.5C84 65.1652 76.1652 73 66.5 73ZM64.75 62.5H68.25V66H64.75V62.5ZM64.75 45H68.25V59H64.75V45Z" fill="white"/>
</svg>
