<svg width="159" height="40" viewBox="0 0 159 40" fill="none" xmlns="http://www.w3.org/2000/svg">
<path d="M113.75 1.03922L113.563 1.9768C110.882 0.949767 107.415 0.431158 103.031 0.379494C98.4803 0.329963 94.8209 0.717715 91.8314 1.57998L91.9868 0.806453L50.9535 0.36598L50.5756 2.16326C47.4948 0.891341 43.2313 0.284977 37.351 0.219876L16.8065 0L11.3253 25.4918L0 39.6885L30.5185 39.3171C38.0773 39.2259 43.3366 38.2376 47.1003 36.211C47.5356 35.9767 47.9491 35.7249 48.3481 35.4614C51.3272 38.3215 56.3881 39.5625 64.4146 39.4619C71.4862 39.3716 76.451 38.3236 80.0727 36.1636C80.4953 35.9095 80.8993 35.6428 81.2846 35.3635C84.2124 38.0074 89.0629 39.1557 96.6094 39.0619C103.227 38.9796 107.648 38.1895 110.975 36.5035C113.922 35.0085 116.051 32.7246 117.255 29.817L115.59 38.2839L135.98 38.0346L139.896 17.798L145.487 17.8002L158.302 1.5227L113.75 1.03922Z" fill="#0E0F21"/>
<path d="M84.795 6.93175L75.2756 6.86586L71.4966 25.3126C71.0689 27.398 69.5065 28.2587 66.0889 28.2804C63.8996 28.2915 62.6607 27.9581 62.0741 27.1984C61.7047 26.7166 61.6048 26.0756 61.7775 25.2417L65.586 6.79712L55.8407 6.72913L51.7964 26.1604C51.4439 27.8607 51.6537 29.1749 52.4376 30.1867C54.0398 32.2478 58.1547 33.2234 64.977 33.1601C77.7815 33.0473 80.2239 29.435 80.9374 25.9167L84.795 6.93175Z" fill="white"/>
<path d="M112.946 23.9981C113.181 22.819 113.032 21.8513 112.499 21.0434C110.925 18.6725 106.226 18.1252 102.431 17.6846C99.3814 17.3294 96.9643 17.0517 96.2431 15.968C96.037 15.6584 95.9724 15.3069 96.0535 14.9145L96.3982 13.1912C96.6889 11.7551 98.1649 11.1747 101.481 11.1865C103.799 11.1948 105.059 11.5072 105.573 12.1911C105.818 12.5178 105.892 12.9226 105.798 13.3935L105.411 15.3338L114.428 15.3504L114.836 13.295C115.12 11.8744 114.902 10.7123 114.182 9.74409C112.618 7.64434 108.707 6.55509 102.519 6.50862C90.1431 6.41975 87.8425 9.87069 87.2281 12.8937L86.7474 15.2623C86.5022 16.4691 86.6553 17.4549 87.2065 18.2794C88.8089 20.6737 93.5565 21.2145 97.3487 21.6501C100.375 21.996 102.759 22.2665 103.47 23.3394C103.673 23.644 103.736 23.9996 103.659 24.3929L103.316 26.1122C102.981 27.7906 101.024 28.1469 98.1761 28.1601C95.7985 28.173 94.5009 27.8738 93.9803 27.184C93.7352 26.8574 93.6568 26.4516 93.7515 25.9767L94.1426 24.0201L84.7215 24.0524L84.2952 26.151C83.9752 27.7216 84.1774 28.953 84.9089 29.9108C86.4744 31.9639 90.4806 32.9286 97.1219 32.8729C108.822 32.7721 111.704 30.1822 112.469 26.3291L112.946 23.9981Z" fill="white"/>
<path d="M143.257 11.8056L146.769 7.36207L118.296 7.16583L117.401 11.6955L126.52 11.7342L122.53 32.1169L131.529 32.0399L135.47 11.7701L143.257 11.8056Z" fill="white"/>
<path d="M50.8747 13.5602C51.2154 11.9342 51.025 10.7268 50.279 9.75733C48.6794 7.684 44.279 6.64636 36.7766 6.59602L21.8832 6.49393L17.3111 27.8821L13.217 33.0405L31.1085 32.8887C44.9774 32.7724 47.5725 29.3812 48.3339 25.7409L50.8747 13.5602ZM26.7171 12.0808C26.7174 11.9613 26.7046 11.8432 26.691 11.7292C26.6679 11.5405 26.6477 11.3781 26.7022 11.2062C26.7263 11.1346 26.8797 11.0184 26.9516 11.0213L27.1645 11.0248C28.4856 11.0386 32.0003 11.0807 32.416 11.0942C32.4372 11.0945 32.4681 11.1098 32.4754 11.1156C32.5559 11.1972 32.89 11.5859 33.1863 11.9322C33.4426 12.2271 33.6802 12.5094 33.7671 12.6009C33.809 12.6442 33.8088 12.704 33.804 12.7456C33.7927 12.8371 33.7297 12.9302 33.6426 12.9967C33.1454 13.3585 31.7801 14.3731 30.908 15.025L30.1744 15.5703C29.8379 15.8217 29.7118 15.6748 29.6572 15.6116C28.7013 14.5069 27.7414 13.4012 26.7946 12.2942C26.744 12.2319 26.7142 12.1528 26.7171 12.0808ZM36.1524 25.7584L36.0685 25.9281C35.9685 26.1327 35.8644 26.3365 35.7603 26.5403L34.9994 28.0364C34.9232 28.1907 34.842 28.3482 34.7657 28.5025L34.7047 28.6259C34.6303 28.772 34.5616 28.9109 34.4712 29.0322C34.3632 29.1753 34.2687 29.1975 34.1935 29.1897C33.8507 29.1749 33.5012 29.1716 33.1662 29.1799C33.1038 29.192 33.0666 29.1668 33.0256 29.1195L32.9364 29.0189C32.7002 28.7497 32.468 28.4814 32.2418 28.2059C32.1912 28.1436 32.1692 28.0876 32.1749 28.0418C32.1841 27.9798 32.2526 27.9007 32.3595 27.8214C32.5021 27.7157 32.8328 27.4715 33.2398 27.1713C34.1417 26.5002 35.8178 25.2543 36.0061 25.1542C36.1479 25.0911 36.2622 25.1159 36.3203 25.1627C36.3608 25.1929 36.3773 25.2349 36.3625 25.283C36.3225 25.428 36.2404 25.5896 36.1524 25.7584ZM39.43 19.6794C39.3237 19.8741 39.2263 20.0665 39.124 20.2621L38.9979 20.508C38.9234 20.6542 38.8408 20.7985 38.7623 20.9438C38.5782 21.2796 38.3883 21.6228 38.2505 21.9815C38.1257 22.3004 37.8432 22.4995 37.5449 22.7123C37.4695 22.7643 37.3933 22.8203 37.322 22.8732C36.0759 23.8111 34.8243 24.735 33.5678 25.6622L31.2785 27.3515C30.5516 27.8855 29.8288 28.4203 29.1051 28.9593C28.9319 29.0882 28.8017 29.1368 28.6423 29.1235C28.5033 29.1146 28.3633 29.1098 28.2275 29.1059C28.1211 29.1042 28.0097 29.1056 27.9033 29.1038L27.6937 29.1052C27.6725 29.1049 27.6553 29.1054 27.6219 29.0426C27.5845 28.6843 27.405 25.7962 27.3938 25.5333L27.3899 25.4726C27.379 25.2866 27.3851 25.2195 27.4789 25.1417C27.5502 25.0888 29.4843 23.6384 29.602 23.5487L32.5347 21.3755C34.1941 20.1473 35.8586 18.9159 37.5148 17.6826C37.7593 17.5009 38.0051 17.4902 38.1431 17.6612C38.5065 18.1118 38.9129 18.5803 39.4581 19.1772C39.5536 19.2876 39.5804 19.4002 39.43 19.6794ZM43.4328 11.5026C43.2831 11.7392 43.1682 11.9534 43.0854 12.1575C43.0061 12.3453 42.8401 12.4801 42.6321 12.6314L29.2271 22.5616C28.9619 22.7603 28.6974 22.9548 28.4331 23.1493C28.1289 23.3694 27.9936 23.2845 27.8771 23.1524C27.6395 22.8701 27.405 22.5927 27.1516 22.3241C27.0615 22.2276 27.0505 22.1013 27.0383 21.9022L27.0358 21.8547C27.0129 21.508 26.9941 21.1622 26.9803 20.8132C26.9695 20.6272 26.9636 20.438 26.9569 20.2528L26.9423 19.8482C26.9377 19.7318 26.929 19.6146 26.9184 19.4671C26.9088 19.3539 26.9299 19.2176 27.1487 19.0558C27.8598 18.5355 28.5677 18.0102 29.2756 17.485L30.2935 16.7323C30.3539 16.69 30.4112 16.6426 30.4757 16.6011C30.6256 16.5013 31.9353 15.5259 33.2036 14.5842L34.8283 13.3783C35.76 12.6881 36.6917 11.9979 37.6201 11.3028C37.7677 11.1939 37.892 11.1525 38.059 11.1504C38.0631 11.1513 38.0631 11.1513 38.0631 11.1513C39.3399 11.1725 40.6185 11.1856 41.9002 11.2037L43.2974 11.2212C43.3744 11.2208 43.4352 11.2554 43.4622 11.3083C43.4842 11.3643 43.4773 11.4354 43.4328 11.5026Z" fill="white"/>
<path d="M36.3576 28.588L36.2992 28.6992C36.2239 28.8494 36.1418 29.0109 36.0597 29.1725L36.0014 29.2837C35.9125 29.4566 35.8049 29.6766 35.6366 29.9006C35.2614 30.4085 34.7067 30.6809 34.1121 30.6456C33.8322 30.6361 33.5384 30.632 33.2469 30.637C32.7477 30.6737 32.2696 30.4758 31.9201 30.0795L31.8277 29.9739C31.6879 29.8112 31.5505 29.6574 31.4221 29.5014L30.6214 29.6477C30.4076 29.8062 30.1888 29.968 29.9749 30.1265C29.8066 30.2523 29.2918 30.6358 28.5233 30.5756C28.4268 30.5674 28.3163 30.5647 28.205 30.5662C28.0986 30.5644 28.0003 30.5644 27.898 30.5635L27.6884 30.5649C27.5729 30.5655 27.4651 30.5506 27.3591 30.5275C27.1959 30.4921 27.0448 30.4208 26.9046 30.339L20.6148 31.5091L31.0946 31.4206C43.0417 31.3223 45.7339 28.7424 46.5515 26.6904L36.3576 28.588Z" fill="#FFCF9F"/>
<path d="M80.5706 20.3738L73.738 21.6437L72.9279 25.6066C72.1855 29.2382 68.8846 29.7252 66.0968 29.7386C64.1727 29.7475 62.0522 29.56 60.9158 28.0871C60.2763 27.2561 60.0876 26.1985 60.3484 24.9396L60.5238 24.0935L53.4465 25.4085L53.2286 26.4503C52.8823 28.122 53.271 28.8686 53.5908 29.2841C54.4757 30.4204 57.1657 31.7611 64.9623 31.696C78.2973 31.579 79.1117 27.5573 79.5065 25.6227L80.5706 20.3738Z" fill="#FFCF9F"/>
<path d="M111.513 23.7124C111.719 22.6679 111.478 22.1456 111.278 21.8459C110.082 20.0397 105.561 19.5142 102.261 19.1342C99.3447 18.7951 97.0912 18.5316 95.7674 17.5476L89.9317 18.6327C91.8877 19.5576 95.0427 19.9188 97.5145 20.1998C101.045 20.604 103.6 20.8946 104.687 22.532C105.106 23.1612 105.248 23.9053 105.092 24.6788L104.748 26.398C104.115 29.5877 100.257 29.612 98.187 29.6234C95.2231 29.6412 93.6677 29.192 92.8177 28.0718C92.466 27.6067 92.0943 26.8211 92.3218 25.696L92.3621 25.4911L85.9203 25.5133L85.7313 26.4418C85.4237 27.9554 85.7791 28.6391 86.0747 29.028C86.9319 30.1541 89.5444 31.478 97.1142 31.4148C109.006 31.3131 110.538 28.5918 111.039 26.0483L111.513 23.7124Z" fill="#FFCF9F"/>
<path d="M134.741 10.3089L142.551 10.3406L143.769 8.80297L142.869 8.79537L134.741 10.3089Z" fill="#FFCF9F"/>
<path d="M128.046 11.5533L124.307 30.6409L130.324 30.5904L134.247 10.3982L128.046 11.5533Z" fill="#FFCF9F"/>
<path d="M37.458 26.4139L37.3751 26.5795C37.2827 26.7687 37.1777 26.9765 37.0736 27.1803L46.9242 25.3491L47.2205 23.927L37.7575 25.6845C37.6783 25.9705 37.5604 26.2183 37.458 26.4139Z" fill="#FFCF9F"/>
<path d="M16.7278 30.9589L26.1645 29.2043L26.164 29.1871C26.1502 29.0346 26.1118 28.4838 26.0682 27.8592L18.003 29.3567L16.7278 30.9589Z" fill="#FFCF9F"/>
<path d="M74.0089 20.3187L80.8415 19.0488L81.1288 17.6291L74.3002 18.8998L74.0089 20.3187Z" fill="#FFCF9F"/>
<path d="M53.7206 24.0884L60.7938 22.7726L61.0852 21.3537L54.0169 22.6664L53.7206 24.0884Z" fill="#FFCF9F"/>
<path d="M88.421 17.4671C88.457 17.5177 88.5021 17.5659 88.5421 17.6173L94.836 16.4482C94.634 16.0412 94.5432 15.5943 94.5574 15.1361L88.0984 16.3377C88.1038 16.9027 88.2724 17.2469 88.421 17.4671Z" fill="#FFCF9F"/>
<path d="M107.231 13.6794L107.193 13.876L108.669 13.8809L113.405 13.0011C113.516 12.4315 113.511 11.986 113.443 11.6296L107.283 12.7723C107.305 13.0461 107.295 13.3472 107.231 13.6794Z" fill="#FFCF9F"/>
<path d="M120.85 10.2497L128.037 10.2784L136.263 8.75175L129.178 8.70264L120.85 10.2497Z" fill="#FFCF9F"/>
</svg>
